# Blender v2.90.0 OBJ File: 'Car.blend'
# www.blender.org
mtllib CarBase.mtl
o Car_Cube.001
v -1.000000 0.250168 1.000000
v -1.000000 2.000000 0.603537
v -1.000000 0.250168 -2.000000
v -1.000000 2.000000 -2.000000
v 1.000000 0.250168 1.000000
v 1.000000 2.000000 0.603537
v 1.000000 0.250168 -2.000000
v 1.000000 2.000000 -2.000000
v -1.000000 1.000000 1.000000
v -1.000000 1.000000 -2.000000
v 1.000000 1.000000 -2.000000
v 1.000000 1.000000 1.000000
v 1.000000 1.000000 2.000000
v 1.000000 0.250168 2.000000
v -1.000000 0.250168 2.000000
v -1.000000 1.000000 2.000000
vt 0.500000 0.000000
vt 0.625000 0.000000
vt 0.625000 0.250000
vt 0.500000 0.250000
vt 0.625000 0.500000
vt 0.500000 0.500000
vt 0.625000 0.750000
vt 0.500000 0.750000
vt 0.625000 1.000000
vt 0.500000 1.000000
vt 0.125000 0.500000
vt 0.375000 0.500000
vt 0.375000 0.750000
vt 0.125000 0.750000
vt 0.875000 0.500000
vt 0.875000 0.750000
vt 0.375000 0.000000
vt 0.375000 0.000000
vt 0.500000 0.000000
vt 0.375000 0.250000
vt 0.375000 0.750000
vt 0.500000 0.750000
vt 0.500000 1.000000
vt 0.375000 1.000000
vt 0.125000 0.750000
vn -1.0000 0.0000 0.0000
vn 0.0000 0.0000 -1.0000
vn 1.0000 0.0000 0.0000
vn 0.0000 0.3686 0.9296
vn 0.0000 -1.0000 0.0000
vn 0.0000 1.0000 0.0000
vn 0.0000 0.0000 1.0000
usemtl None
s off
f 9/1/1 2/2/1 4/3/1 10/4/1
f 10/4/2 4/3/2 8/5/2 11/6/2
f 11/6/3 8/5/3 6/7/3 12/8/3
f 12/8/4 6/7/4 2/9/4 9/10/4
f 3/11/5 7/12/5 5/13/5 1/14/5
f 8/5/6 4/15/6 2/16/6 6/7/6
f 9/1/1 1/17/1 15/18/1 16/19/1
f 7/12/3 11/6/3 12/8/3 5/13/3
f 3/20/2 10/4/2 11/6/2 7/12/2
f 1/17/1 9/1/1 10/4/1 3/20/1
f 14/21/7 13/22/7 16/23/7 15/24/7
f 1/14/5 5/13/5 14/21/5 15/25/5
f 5/13/3 12/8/3 13/22/3 14/21/3
f 12/8/6 9/10/6 16/23/6 13/22/6
